<?xml version="1.0" encoding="UTF-8" standalone="no"?>
<svg
   viewBox="0 0 36 36"
   version="1.1"
   id="svg34"
   sodipodi:docname="flying-saucer-EPFL.svg"
   inkscape:version="1.1.2 (0a00cf5339, 2022-02-04)"
   xmlns:inkscape="http://www.inkscape.org/namespaces/inkscape"
   xmlns:sodipodi="http://sodipodi.sourceforge.net/DTD/sodipodi-0.dtd"
   xmlns="http://www.w3.org/2000/svg"
   xmlns:svg="http://www.w3.org/2000/svg"
   xmlns:rdf="http://www.w3.org/1999/02/22-rdf-syntax-ns#"
   xmlns:cc="http://creativecommons.org/ns#"
   xmlns:dc="http://purl.org/dc/elements/1.1/">
  <title
     id="title1207">EPFL Startpage logo</title>
  <defs
     id="defs38" />
  <sodipodi:namedview
     id="namedview36"
     pagecolor="#ffffff"
     bordercolor="#666666"
     borderopacity="1.0"
     inkscape:pageshadow="2"
     inkscape:pageopacity="0.0"
     inkscape:pagecheckerboard="0"
     showgrid="false"
     inkscape:zoom="41.145004"
     inkscape:cx="14.327377"
     inkscape:cy="28.885645"
     inkscape:window-width="1874"
     inkscape:window-height="1136"
     inkscape:window-x="46"
     inkscape:window-y="27"
     inkscape:window-maximized="1"
     inkscape:current-layer="svg34" />
  <path
     fill="#FFD983"
     d="M32.831 20.425c-.689 3.241-9.21 6.221-17.314 4.499S.841 17.013 1.53 13.772s8.587-3.287 16.69-1.564 15.3 4.976 14.611 8.217z"
     id="path2" />
  <path
     fill="#FFD983"
     d="M27 36l-2-14-17-5-8 19z"
     id="path4" />
  <ellipse
     transform="rotate(-78 17.482 15.686)"
     fill="#67757F"
     cx="17.481"
     cy="15.685"
     rx="7.556"
     ry="17"
     id="ellipse6" />
  <path
     fill="#67757F"
     d="M.414 10.977l.414 2.315 32.866 6.986 1.412-2.126z"
     id="path8" />
  <ellipse
     transform="rotate(-78 18.013 13.186)"
     fill="#9AAAB4"
     cx="18.012"
     cy="13.186"
     rx="8"
     ry="18"
     id="ellipse10" />
  <ellipse
     transform="rotate(-78 18.43 11.23)"
     fill="#CCD6DD"
     cx="18.428"
     cy="11.229"
     rx="6"
     ry="15"
     id="ellipse12" />
  <ellipse
     transform="rotate(-78 18.845 9.274)"
     fill="#E1E8ED"
     cx="18.844"
     cy="9.273"
     rx="3"
     ry="9"
     id="ellipse14" />
  <path
     fill="#5DADEC"
     d="M10.041 7.402c.344-1.621 2.996-4.475 9.843-3.02s8.108 5.141 7.764 6.762c-.344 1.621-4.565 2.097-9.427 1.063s-8.525-3.184-8.18-4.805z"
     id="path16" />
  <circle
     fill="#8CCAF7"
     cx="16.765"
     cy="19.055"
     r="1"
     id="circle18" />
  <circle
     fill="#8CCAF7"
     cx="24.798"
     cy="19.74"
     r="1"
     id="circle20" />
  <circle
     fill="#8CCAF7"
     cx="32.269"
     cy="18.261"
     r="1"
     id="circle22" />
  <ellipse
     transform="rotate(-50.811 34.182 14.066)"
     fill="#8CCAF7"
     cx="34.183"
     cy="14.067"
     rx=".5"
     ry="1"
     id="ellipse24" />
  <ellipse
     transform="rotate(-15.188 2.802 7.396)"
     fill="#8CCAF7"
     cx="2.802"
     cy="7.397"
     rx="1"
     ry=".5"
     id="ellipse26" />
  <circle
     fill="#8CCAF7"
     cx="2.924"
     cy="12.023"
     r="1"
     id="circle28" />
  <circle
     fill="#8CCAF7"
     cx="9.148"
     cy="16.413"
     r="1"
     id="circle30" />
  <ellipse
     transform="rotate(-78 19.573 5.85)"
     fill="#8CCAF7"
     cx="19.572"
     cy="5.85"
     rx="1.5"
     ry="5"
     id="ellipse32" />
  <g
     id="g944"
     transform="matrix(0.11105165,0,0,0.11105165,4.6985892,27.960307)"
     style="fill:#ff0000">
    <polygon
       class="st0"
       points="38.3,9.8 38.3,0 0,0 0,21.6 11.4,21.6 11.4,9.8 "
       id="polygon928"
       style="fill:#ff0000" />
    <polygon
       class="st0"
       points="11.4,43.2 11.4,31.4 0,31.4 0,53 38.3,53 38.3,43.2 "
       id="polygon930"
       style="fill:#ff0000" />
    <rect
       x="11.4"
       y="21.6"
       class="st0"
       width="24.6"
       height="9.8000002"
       id="rect932"
       style="fill:#ff0000" />
    <path
       class="st0"
       d="M 86,4.9 C 84.5,3.4 82.6,2.3 80.3,1.4 78,0.4 75.1,0 71.8,0 H 48.1 V 53 H 59.5 V 31.4 h 12.2 c 3.3,0 6.1,-0.4 8.5,-1.3 2.3,-0.9 4.2,-2.1 5.7,-3.5 1.5,-1.5 2.5,-3.1 3.2,-5 0.7,-1.9 1,-3.8 1,-5.8 0,-2 -0.3,-4 -1,-5.8 C 88.5,8 87.4,6.3 86,4.9 Z m -8,13.8 c -0.6,0.8 -1.3,1.4 -2.3,1.8 -0.9,0.4 -2,0.7 -3.3,0.9 -1.2,0.1 -2.5,0.2 -3.9,0.2 H 59.4 V 9.8 h 9.1 c 1.3,0 2.6,0.1 3.9,0.2 1.2,0.1 2.3,0.4 3.3,0.9 0.9,0.4 1.7,1 2.3,1.8 0.6,0.8 0.9,1.8 0.9,3 0,1.2 -0.3,2.3 -0.9,3 z"
       id="path934"
       style="fill:#ff0000" />
    <polygon
       class="st0"
       points="144,53 182.4,53 182.4,43.2 155.5,43.2 155.5,0 144,0 "
       id="polygon936"
       style="fill:#ff0000" />
    <polygon
       class="st0"
       points="135.8,9.8 135.8,0 97.4,0 97.4,21.6 108.9,21.6 108.9,9.8 "
       id="polygon938"
       style="fill:#ff0000" />
    <rect
       x="97.400002"
       y="31.4"
       class="st0"
       width="11.4"
       height="21.6"
       id="rect940"
       style="fill:#ff0000" />
    <rect
       x="108.9"
       y="21.6"
       class="st0"
       width="24.6"
       height="9.8000002"
       id="rect942"
       style="fill:#ff0000" />
  </g>
  <metadata
     id="metadata1205">
    <rdf:RDF>
      <cc:Work
         rdf:about="">
        <dc:title>EPFL Startpage logo</dc:title>
      </cc:Work>
    </rdf:RDF>
  </metadata>
</svg>
