<?xml version="1.0" standalone="no"?>
<!DOCTYPE svg PUBLIC "-//W3C//DTD SVG 20010904//EN"
 "http://www.w3.org/TR/2001/REC-SVG-20010904/DTD/svg10.dtd">
<svg version="1.0" xmlns="http://www.w3.org/2000/svg"
 width="700.000000pt" height="700.000000pt" viewBox="0 0 700.000000 700.000000"
 preserveAspectRatio="xMidYMid meet">
<metadata>
Created by potrace 1.14, written by Peter Selinger 2001-2017
</metadata>
<g transform="translate(0.000000,700.000000) scale(0.100000,-0.100000)"
fill="#000000" stroke="none">
<path d="M2955 6213 c-110 -13 -243 -39 -326 -64 -95 -28 -106 -29 -301 -29
-1242 0 -2115 -369 -2244 -947 -23 -105 -14 -272 25 -478 17 -88 35 -196 41
-240 28 -215 89 -358 241 -560 81 -110 288 -312 424 -416 1100 -840 3084
-1304 4525 -1058 360 61 678 176 901 324 159 106 221 176 420 476 195 292 216
330 250 439 33 106 33 279 1 400 -128 472 -665 964 -1477 1355 -93 45 -212
100 -263 121 -67 28 -111 55 -160 98 -335 292 -879 498 -1507 571 -117 13
-463 19 -550 8z m-537 -143 c-123 -62 -187 -107 -284 -205 -113 -113 -173
-221 -181 -329 -5 -60 -3 -72 27 -133 179 -363 1090 -741 2070 -860 205 -25
641 -25 798 0 285 45 450 124 509 244 25 52 28 68 27 153 -2 190 -81 376 -245
572 l-31 38 38 -16 c73 -31 352 -173 440 -225 389 -229 665 -482 784 -719 46
-92 57 -126 69 -212 49 -353 -274 -637 -873 -769 -1412 -310 -3723 276 -4565
1157 -326 341 -368 669 -117 920 84 84 138 121 256 180 302 150 754 237 1255
242 l100 1 -77 -39z"/>
<path d="M910 1330 l0 -240 125 0 125 0 0 -100 0 -100 -125 0 -125 0 0 -235 0
-235 415 0 415 0 0 105 0 105 -290 0 -290 0 0 125 0 125 265 0 265 0 0 110 0
110 -265 0 -265 0 0 125 0 125 290 0 290 0 0 110 0 110 -415 0 -415 0 0 -240z"/>
<path d="M1950 995 l0 -575 125 0 125 0 0 230 0 230 158 0 c163 0 262 14 324
46 64 32 116 84 145 142 25 51 28 67 28 157 -1 81 -5 109 -22 147 -44 95 -149
167 -274 187 -35 6 -187 11 -336 11 l-273 0 0 -575z m593 331 c49 -24 67 -51
67 -102 0 -93 -68 -124 -277 -124 l-133 0 0 126 0 126 153 -4 c120 -3 160 -8
190 -22z"/>
<path d="M3014 1557 c-2 -7 -3 -114 -2 -237 l3 -225 123 -3 122 -3 0 -99 0
-100 -125 0 -125 0 0 -235 0 -235 130 0 130 0 0 230 0 230 265 0 265 0 0 110
0 110 -265 0 -265 0 0 125 0 125 290 0 290 0 0 110 0 110 -415 0 c-327 0 -417
-3 -421 -13z"/>
<path d="M4020 995 l0 -575 420 0 420 0 0 105 0 105 -292 2 -293 3 -3 468 -2
467 -125 0 -125 0 0 -575z"/>
</g>
</svg>
